Coordinates
version=1
nRows=6
nColumns=63
inDegrees=yes

Units are S.I. units (second, meters, Newtons, ...)
If the header above contains a line with 'inDegrees', this indicates whether rotational values are in degrees (yes) or radians (no).

endheader
time	pelvis_tilt	pelvis_list	pelvis_rotation	pelvis_tx	pelvis_ty	pelvis_tz	hip_flexion_r	hip_adduction_r	hip_rotation_r	knee_angle_r	knee_angle_r_beta	ankle_angle_r	subtalar_angle_r	mtp_angle_r	hip_flexion_l	hip_adduction_l	hip_rotation_l	knee_angle_l	knee_angle_l_beta	ankle_angle_l	subtalar_angle_l	mtp_angle_l	L5_S1_Flex_Ext	L5_S1_Lat_Bending	L5_S1_axial_rotation	L4_L5_Flex_Ext	L4_L5_Lat_Bending	L4_L5_axial_rotation	L3_L4_Flex_Ext	L3_L4_Lat_Bending	L3_L4_axial_rotation	L2_L3_Flex_Ext	L2_L3_Lat_Bending	L2_L3_axial_rotation	L1_L2_Flex_Ext	L1_L2_Lat_Bending	L1_L2_axial_rotation	L1_T12_Flex_Ext	L1_T12_Lat_Bending	L1_T12_axial_rotation	Abs_r3	Abs_r2	Abs_r1	Abs_t1	Abs_t2	neck_flexion	neck_bending	neck_rotation	arm_flex_r	arm_add_r	arm_rot_r	elbow_flex_r	pro_sup_r	wrist_flex_r	wrist_dev_r	arm_flex_l	arm_add_l	arm_rot_l	elbow_flex_l	pro_sup_l	wrist_flex_l	wrist_dev_l
      3.75000000	    -62.75314665	     -3.07658820	      7.69150120	     -0.30644403	      1.13651783	      0.02280335	     86.56295326	    -11.64069763	    -11.02624085	     41.42889773	      0.72307067	     -6.21436131	     -4.50797800	      0.00000000	    126.27679081	      4.31373485	     -2.46089683	     99.59685564	      1.73829306	     24.53808574	     -0.55294301	      0.00000000	     -0.09027077	      0.85293116	     -1.20362733	     -0.16764185	      1.13439844	     -1.27885404	     -0.14830585	      2.07381681	     -1.27885404	     -0.10317047	      2.07381681	     -1.05317392	     -0.08382544	      1.73929721	     -0.97794721	     -0.05158072	      1.32119036	     -0.90272050	     -0.64479511	      9.64852783	     -6.69421414	      0.00000000	      0.00000000	      0.00000000	      0.00000000	      0.00000000	     64.04498870	     -9.88846965	     -0.52285410	     42.66204127	     59.71043127	      0.00000000	      4.99980422	     62.63772985	     -6.46535609	      5.67833907	     43.17391415	     60.10389010	      0.00000000	      4.99980422
      3.75800000	    -62.85955348	     -3.13547352	      7.32524310	     -0.30654772	      1.13709372	      0.02309518	     86.88997155	    -11.36311980	    -10.89873752	     43.19853119	      0.75395660	     -5.88206598	     -4.64988793	      0.00000000	    126.17469601	      4.05005685	     -2.46193359	     97.93224586	      1.70924013	     23.80375927	     -0.78178282	      0.00000000	     -0.08966193	      0.86537725	     -1.13388331	     -0.16651117	      1.15095174	     -1.20475102	     -0.14730558	      2.10407823	     -1.20475102	     -0.10247462	      2.10407823	     -0.99214790	     -0.08326007	      1.76467728	     -0.92128019	     -0.05123283	      1.34046935	     -0.85041249	     -0.64044619	      9.78932048	     -6.30631883	      0.00000000	      0.00000000	      0.00000000	      0.00000000	      0.00000000	     64.11347793	     -9.90907846	     -0.54001249	     42.65552759	     59.66540133	      0.00000000	      4.99980686	     62.63457118	     -6.48664449	      5.70720115	     43.27182829	     60.06470206	      0.00000000	      4.99980686
      3.76700000	    -62.94807578	     -2.92634857	      7.24619602	     -0.30665558	      1.13760441	      0.02344562	     87.42585290	    -11.33589372	    -10.29769831	     45.33684579	      0.79127723	     -5.33786222	     -5.12422140	      0.00000000	    125.92989376	      3.87691134	     -2.93709593	     96.07772428	      1.67687263	     22.00093875	     -2.41344684	      0.00000000	     -0.08942998	      0.83822747	     -1.12604652	     -0.16608041	      1.11484254	     -1.19642443	     -0.14692451	      2.03806628	     -1.19642443	     -0.10220952	      2.03806628	     -0.98529070	     -0.08304468	      1.70931346	     -0.91491280	     -0.05110029	      1.29841435	     -0.84453489	     -0.63878937	      9.48219681	     -6.26273293	      0.00000000	      0.00000000	      0.00000000	      0.00000000	      0.00000000	     64.07015904	     -9.78918669	     -0.67655758	     42.70886722	     59.66849694	      0.00000000	      4.99981236	     62.67467276	     -6.59224347	      5.73824154	     43.24827872	     60.10210534	      0.00000000	      4.99981236
      3.77500000	    -63.02459582	     -3.09199018	      6.61034418	     -0.30670444	      1.13793947	      0.02430818	     87.91109544	    -10.76379415	    -10.26625709	     47.40321963	      0.82734226	     -4.96194010	     -5.35527946	      0.00000000	    125.57552987	      3.48587300	     -2.56198068	     94.19468925	      1.64400747	     21.31716474	     -2.63746151	      0.00000000	     -0.09099694	      0.86262803	     -1.00777979	     -0.16899042	      1.14729528	     -1.07076603	     -0.14949887	      2.09739379	     -1.07076603	     -0.10400040	      2.09739379	     -0.88180732	     -0.08449976	      1.75907107	     -0.81882108	     -0.05199565	      1.33621081	     -0.75583484	     -0.64998204	      9.75822077	     -5.60496886	      0.00000000	      0.00000000	      0.00000000	      0.00000000	      0.00000000	     64.13881831	     -9.79243037	     -0.79633278	     42.75191290	     59.65791875	      0.00000000	      4.99981360	     62.62936924	     -6.57937944	      5.75468786	     43.34878067	     60.11004401	      0.00000000	      4.99981360
      3.78300000	    -63.08050490	     -3.16129014	      6.06453432	     -0.30681610	      1.13805051	      0.02522333	     88.58549239	    -10.24852364	     -9.91845701	     49.81079871	      0.86936244	     -4.46548210	     -5.79055900	      0.00000000	    125.11327766	      3.15003407	     -2.28017585	     92.20120395	      1.60921458	     20.25755431	     -3.28193933	      0.00000000	     -0.09198400	      0.87562752	     -0.91303972	     -0.17082349	      1.16458460	     -0.97010470	     -0.15112052	      2.12900075	     -0.97010470	     -0.10512852	      2.12900075	     -0.79890976	     -0.08541634	      1.78557964	     -0.74184477	     -0.05255966	      1.35634703	     -0.68477979	     -0.65703253	      9.90527363	     -5.07805301	      0.00000000	      0.00000000	      0.00000000	      0.00000000	      0.00000000	     64.15047221	     -9.68358029	     -0.97349348	     42.85957189	     59.64199298	      0.00000000	      4.99981571	     62.62074375	     -6.60934865	      5.67453972	     43.34299886	     60.11364113	      0.00000000	      4.99981571
      3.79200000	    -63.15778256	     -3.27400493	      5.41290076	     -0.30700163	      1.13822670	      0.02634239	     89.29107063	     -9.64302119	     -9.71430802	     52.16413020	      0.91043582	     -3.97605779	     -6.17630971	      0.00000000	    124.52775382	      2.75662372	     -1.83521238	     90.02751571	      1.57127657	     19.42856042	     -3.63175766	      0.00000000	     -0.09273313	      0.89276141	     -0.79542800	     -0.17221469	      1.18737268	     -0.84514225	     -0.15235125	      2.17066010	     -0.84514225	     -0.10598469	      2.17066010	     -0.69599950	     -0.08611198	      1.82051908	     -0.64628525	     -0.05298771	      1.38288743	     -0.59657100	     -0.66238344	     10.09909568	     -4.42393192	      0.00000000	      0.00000000	      0.00000000	      0.00000000	      0.00000000	     64.20995004	     -9.62543267	     -1.10111297	     42.90205335	     59.62986210	      0.00000000	      4.99981686	     62.59528467	     -6.60547302	      5.61312217	     43.41400018	     60.11215848	      0.00000000	      4.99981686
